<svg xmlns="http://www.w3.org/2000/svg" width="131" height="40" viewBox="0 0 131 40" fill="none">
<path fill-rule="evenodd" clip-rule="evenodd" d="M57.7686 11.6914C57.1143 11.6914 56.4686 11.8396 55.8799 12.125L53.9403 13.065C53.6448 13.2083 53.7468 13.6527 54.0752 13.6527H76.9247C77.2532 13.6527 77.3552 13.2083 77.0596 13.065L75.12 12.125C74.5313 11.8396 73.8856 11.6914 73.2314 11.6914H57.7686ZM52.7279 16.354V17.8061C52.7279 18.4894 53.2818 19.0433 53.9651 19.0433H77.0349C77.7182 19.0433 78.2721 18.4894 78.2721 17.8061V16.354H87.5538C87.9698 16.354 88.3828 16.424 88.7757 16.5609L97.0645 19.4506C97.3935 19.5653 97.3111 20.052 96.9627 20.052H34.0365C33.6881 20.052 33.6057 19.5653 33.9347 19.4506L42.2236 16.5609C42.6164 16.424 43.0294 16.354 43.4454 16.354H52.7279ZM90.8106 20.4198H40.5517L47.2394 21.5344C47.7368 21.6173 48.2403 21.6589 48.7446 21.6589H82.6066C83.1101 21.6589 83.6127 21.6174 84.1093 21.5348L90.8106 20.4198ZM39.0465 20.4198H33.7562C33.5854 20.4198 33.4469 20.5582 33.4469 20.7291V26.3736C33.4469 26.5444 33.5854 26.6829 33.7562 26.6829H48.1236V21.8859C47.8138 21.8654 47.5052 21.8295 47.1987 21.7785L39.0465 20.4198ZM48.371 26.6829H83.298V21.8809C83.068 21.8979 82.8374 21.9064 82.6066 21.9064H48.7446C48.62 21.9064 48.4955 21.9039 48.371 21.899V26.6829ZM83.5454 26.6829H97.2429C97.4137 26.6829 97.5522 26.5444 97.5522 26.3736V20.7291C97.5522 20.5582 97.4137 20.4198 97.2429 20.4198H92.3182L84.1499 21.7789C83.9493 21.8123 83.7477 21.8391 83.5454 21.8594V26.6829ZM34.4608 21.0215C34.2899 21.0215 34.1515 21.1599 34.1515 21.3308V25.6863C34.1515 25.8571 34.2899 25.9956 34.4608 25.9956H44.6226C45.2034 25.9956 45.6742 25.5247 45.6742 24.9439V22.9545C45.6742 22.5867 45.4049 22.2743 45.0412 22.2202L37.312 21.07C37.0949 21.0377 36.8758 21.0215 36.6564 21.0215H34.4608ZM34.3989 21.3308C34.3989 21.2966 34.4266 21.2689 34.4608 21.2689H36.6564C36.8636 21.2689 37.0706 21.2842 37.2756 21.3147L45.0047 22.465C45.2473 22.501 45.4268 22.7093 45.4268 22.9545V24.9439C45.4268 25.3881 45.0667 25.7481 44.6226 25.7481H34.4608C34.4266 25.7481 34.3989 25.7204 34.3989 25.6863V21.3308ZM96.0048 21.3308C96.0048 21.1599 95.8663 21.0215 95.6955 21.0215H94.3215C94.102 21.0215 93.8829 21.0377 93.6659 21.07L85.9367 22.2202C85.5729 22.2743 85.3036 22.5867 85.3036 22.9545V24.9439C85.3036 25.5247 85.7744 25.9956 86.3553 25.9956H95.6955C95.8663 25.9956 96.0048 25.8571 96.0048 25.6863V21.3308ZM95.6955 21.2689C95.7296 21.2689 95.7573 21.2966 95.7573 21.3308V25.6863C95.7573 25.7204 95.7296 25.7481 95.6955 25.7481H86.3553C85.9111 25.7481 85.5511 25.3881 85.5511 24.9439V22.9545C85.5511 22.7093 85.7306 22.501 85.9731 22.465L93.7023 21.3147C93.9073 21.2842 94.1142 21.2689 94.3215 21.2689H95.6955ZM50.2191 21.1737H58.6478V20.8644H50.2191V21.1737ZM59.1311 21.1737H71.8515V20.8644H59.1311V21.1737ZM72.3058 21.1737H80.7345V20.8644H72.3058V21.1737ZM34.959 22.4895C34.959 22.1478 35.236 21.8709 35.5776 21.8709H37.6562C37.9978 21.8709 38.2748 22.1478 38.2748 22.4895V24.568C38.2748 24.9097 37.9978 25.1867 37.6562 25.1867H35.5776C35.236 25.1867 34.959 24.9097 34.959 24.568V22.4895ZM93.2236 23.9865H94.4608V24.6051H93.2236V23.9865ZM92.6049 23.3679H93.2236H94.4608H95.0794V23.9865V24.6051V25.2237H94.4608H93.2236H92.6049V24.6051V23.9865V23.3679ZM91.4644 23.9865H90.2271V24.6051H91.4644V23.9865ZM90.2271 23.3679H89.6085V23.9865V24.6051V25.2237H90.2271H91.4644H92.083V24.6051V23.9865V23.3679H91.4644H90.2271ZM30.5 21.0396C30.5 20.6979 30.777 20.421 31.1186 20.421H32.7696C32.9405 20.421 33.0789 20.5595 33.0789 20.7303V26.3748C33.0789 26.5456 32.9405 26.6841 32.7696 26.6841H31.1186C30.777 26.6841 30.5 26.4072 30.5 26.0655V21.0396ZM98.2304 20.421C98.0595 20.421 97.9211 20.5595 97.9211 20.7303V26.3748C97.9211 26.5456 98.0595 26.6841 98.2304 26.6841H99.8814C100.223 26.6841 100.5 26.4072 100.5 26.0655V21.0396C100.5 20.6979 100.223 20.421 99.8814 20.421H98.2304ZM69.4205 14.0414H53.9651C53.4527 14.0414 53.0372 14.4569 53.0372 14.9694V17.8061C53.0372 18.3185 53.4527 18.734 53.9651 18.734H69.4205V14.0414ZM69.6735 18.734V14.0414H77.0349C77.5474 14.0414 77.9628 14.4569 77.9628 14.9694V17.8061C77.9628 18.3185 77.5474 18.734 77.0349 18.734H69.6735ZM70.4314 15.3621C70.4314 15.0204 70.7084 14.7434 71.05 14.7434H76.6414C76.9831 14.7434 77.2601 15.0204 77.2601 15.3621V16.9069C77.2601 17.2485 76.9831 17.5255 76.6414 17.5255H71.05C70.7084 17.5255 70.4314 17.2485 70.4314 16.9069V15.3621ZM30.5 27.6571C30.5 27.3155 30.777 27.0385 31.1186 27.0385H32.4603C32.802 27.0385 33.0789 27.3155 33.0789 27.6571V32.6831C33.0789 33.0247 32.802 33.3017 32.4603 33.3017H31.1186C30.777 33.3017 30.5 33.0247 30.5 32.6831V27.6571ZM31.7897 27.7755C31.4845 27.7755 31.237 28.023 31.237 28.3282C31.237 28.6334 31.4845 28.8808 31.7897 28.8808C32.0949 28.8808 32.3423 28.6334 32.3423 28.3282C32.3423 28.023 32.0949 27.7755 31.7897 27.7755ZM31.7897 31.4595C31.4845 31.4595 31.237 31.7069 31.237 32.0121C31.237 32.3173 31.4845 32.5647 31.7897 32.5647C32.0949 32.5647 32.3423 32.3173 32.3423 32.0121C32.3423 31.7069 32.0949 31.4595 31.7897 31.4595ZM97.9211 27.6571C97.9211 27.3155 98.198 27.0385 98.5397 27.0385H99.8814C100.223 27.0385 100.5 27.3155 100.5 27.6571V32.6831C100.5 33.0247 100.223 33.3017 99.8814 33.3017H98.5397C98.198 33.3017 97.9211 33.0247 97.9211 32.6831V27.6571ZM99.2107 27.7755C98.9055 27.7755 98.6581 28.023 98.6581 28.3282C98.6581 28.6334 98.9055 28.8808 99.2107 28.8808C99.5159 28.8808 99.7633 28.6334 99.7633 28.3282C99.7633 28.023 99.5159 27.7755 99.2107 27.7755ZM99.2107 31.4595C98.9055 31.4595 98.6581 31.7069 98.6581 32.0121C98.6581 32.3173 98.9055 32.5647 99.2107 32.5647C99.5159 32.5647 99.7633 32.3173 99.7633 32.0121C99.7633 31.7069 99.5159 31.4595 99.2107 31.4595ZM34.0655 27.0385C33.7239 27.0385 33.4469 27.3155 33.4469 27.6571V32.6831C33.4469 33.0247 33.7239 33.3017 34.0655 33.3017H96.9336C97.2752 33.3017 97.5522 33.0247 97.5522 32.6831V27.6571C97.5522 27.3155 97.2752 27.0385 96.9336 27.0385H34.0655ZM92.6448 28.7627H93.9865V29.9864H92.6448V28.7627ZM94.6051 30.3548V29.9864V28.7627V28.1441H93.9865H92.6448H92.0262V28.7627V29.9864V30.3548V31.5781V32.1967H92.6448H93.9865H94.6051V31.5781V30.3548ZM92.6448 31.5781V30.3548H93.9865V31.5781H92.6448ZM35.1711 28.5126C34.8294 28.5126 34.5524 28.7895 34.5524 29.1312V31.2097C34.5524 31.5514 34.8294 31.8284 35.1711 31.8284H37.2496C37.5913 31.8284 37.8682 31.5514 37.8682 31.2097V29.1312C37.8682 28.7895 37.5913 28.5126 37.2496 28.5126H35.1711ZM89.5517 28.7627H90.8934V29.9864H89.5517V28.7627ZM91.512 30.3548V29.9864V28.7627V28.1441H90.8934H89.5517H88.9331V28.7627V29.9864V30.3548V31.5781V32.1967H89.5517H90.8934H91.512V31.5781V30.3548ZM89.5517 31.5781V30.3548H90.8934V31.5781H89.5517Z" fill="#4C4C4C"/>
</svg>