<svg xmlns="http://www.w3.org/2000/svg" width="60" height="38" viewBox="0 0 60 38" fill="none">
<path fill-rule="evenodd" clip-rule="evenodd" d="M40.2931 21.3155C40.3022 21.3519 40.3068 21.3883 40.3068 21.4293C40.3113 21.4475 40.3113 21.4611 40.3113 21.4793C40.3158 21.5066 40.3158 21.5294 40.3158 21.5567C40.3204 21.6886 40.3067 21.8206 40.2749 21.948C40.2612 22.0117 40.243 22.0709 40.2203 22.1301C40.2021 22.1847 40.1794 22.2393 40.152 22.2939C40.152 22.2962 40.1509 22.2973 40.1497 22.2984C40.1486 22.2996 40.1475 22.3007 40.1475 22.303C40.1156 22.3667 40.0838 22.4259 40.0428 22.4805C40.0246 22.5123 40.0019 22.5442 39.9746 22.5715C39.9518 22.6033 39.9291 22.6352 39.8927 22.6671C39.8836 22.6853 39.8654 22.7035 39.8471 22.7171C39.8381 22.7308 39.8244 22.7444 39.8107 22.749C39.7698 22.7945 39.7288 22.8309 39.6833 22.8582C39.656 22.8809 39.6333 22.8991 39.606 22.9128C39.5468 22.9537 39.4876 22.9902 39.4239 23.022C39.3693 23.0493 39.3147 23.0721 39.2601 23.0903C39.2055 23.1085 39.1463 23.1267 39.0917 23.1403C38.9233 23.1767 38.7504 23.1858 38.5775 23.1676C38.5276 23.1631 38.4733 23.1541 38.4189 23.145L38.4182 23.1449L38.4068 23.1426C38.3866 23.1387 38.3637 23.1343 38.3409 23.1267C38.3272 23.1244 38.3147 23.121 38.3022 23.1176C38.2897 23.1142 38.2771 23.1107 38.2635 23.1085C38.2514 23.1085 38.2392 23.1044 38.2271 23.1004L38.2225 23.0989L38.2179 23.0974L38.2127 23.0958L38.2089 23.0948C38.1954 23.0914 38.1844 23.0856 38.1722 23.0791L38.1694 23.0776C38.166 23.0757 38.1625 23.0739 38.1588 23.0721C38.156 23.0721 38.1532 23.0703 38.1493 23.0679C38.1469 23.0664 38.1441 23.0647 38.1406 23.063C38.0997 23.0493 38.0587 23.0311 38.0223 23.0129C37.9813 22.9947 37.9449 22.9765 37.9131 22.9537C37.8767 22.931 37.8448 22.9083 37.813 22.8855L37.813 22.8855C37.7265 22.8309 37.6491 22.7672 37.5763 22.6898C37.5729 22.6864 37.5692 22.6829 37.5654 22.6794C37.5541 22.669 37.5422 22.6579 37.5354 22.6443C37.4899 22.5988 37.4535 22.5487 37.4171 22.4941H37.1987C36.7527 22.4896 36.2612 22.4941 35.7424 22.5032C35.6759 22.5055 35.6093 22.5067 35.5422 22.5078C35.4762 22.5089 35.4096 22.5101 35.342 22.5123L35.3352 22.5125C35.0916 22.517 34.8436 22.5216 34.5865 22.5351C34.1224 22.5533 33.6491 22.576 33.1713 22.6079C32.7799 22.6306 32.3931 22.6625 32.0063 22.7035C31.9653 22.7035 31.9244 22.708 31.8834 22.7171C31.6468 22.7399 31.4147 22.7672 31.1826 22.799L31.1763 22.7995H31.1763C31.1189 22.8039 31.0576 22.8086 31.0006 22.8218C30.8276 22.84 30.6593 22.8673 30.4909 22.8946C30.3089 22.9219 30.1314 22.9537 29.9584 22.9856C29.7855 23.0175 29.6217 23.0493 29.4624 23.0857C29.3532 23.1085 29.2486 23.1358 29.1439 23.1631L29.1439 23.1631L29.1439 23.1631L29.1439 23.1631L29.1439 23.1631L29.1439 23.1631C29.0667 23.1799 28.9896 23.2016 28.9144 23.2227L28.9143 23.2227L28.9143 23.2227L28.9143 23.2227L28.9138 23.2229C28.8871 23.2304 28.8606 23.2379 28.8344 23.245C28.7024 23.2814 28.575 23.3178 28.4567 23.3633C28.2246 23.4407 28.0107 23.5271 27.8196 23.6182L27.0004 24.0186L24.9571 25.0152L24.138 25.4157L23.3189 25.8116L22.9184 24.997L19.9286 18.8581L19.5282 18.0435L24.0288 15.8501C24.1745 15.7773 24.3246 15.6954 24.4748 15.5998C24.5795 15.5361 24.6887 15.4633 24.7979 15.3859L24.989 15.2494C25.3258 15.0037 25.6716 14.717 26.0266 14.3893C26.1101 14.3151 26.1936 14.2366 26.2786 14.1569L26.2786 14.1568L26.2788 14.1566L26.2788 14.1566L26.2789 14.1566L26.2789 14.1565C26.3188 14.119 26.3591 14.0812 26.3998 14.0435C26.418 14.0298 26.4362 14.0116 26.4544 13.9888C26.5909 13.8614 26.7229 13.7295 26.8594 13.5929C26.8622 13.5929 26.8633 13.5912 26.8648 13.5888C26.8657 13.5873 26.8668 13.5856 26.8685 13.5838C26.9868 13.4701 27.1005 13.3517 27.2143 13.2289C27.2826 13.1652 27.3463 13.0969 27.4054 13.0286C27.5192 12.9103 27.6284 12.792 27.7376 12.6737C27.8924 12.5099 28.0425 12.3415 28.1882 12.1731C28.6933 11.6043 29.1802 11.0309 29.6262 10.4848C29.7354 10.3528 29.8401 10.2254 29.9402 10.098C30.1222 9.87297 30.2945 9.65278 30.459 9.44266L30.4595 9.44207C30.5211 9.3634 30.5815 9.28614 30.641 9.21057C30.7002 9.13771 30.7548 9.06495 30.8094 8.99213L30.7138 8.7919C30.6927 8.74958 30.6742 8.70453 30.6564 8.66098L30.6564 8.66097C30.6512 8.64832 30.6461 8.63581 30.641 8.62352C30.6228 8.56437 30.6046 8.50521 30.5909 8.44605C30.5272 8.1548 30.5409 7.85445 30.6365 7.5723C30.773 7.17634 31.0688 6.84419 31.4465 6.66216C31.5011 6.63485 31.5557 6.6121 31.6103 6.5939C31.642 6.58032 31.6737 6.57125 31.7053 6.5622L31.7053 6.5622L31.7059 6.56204C31.9243 6.49833 32.1519 6.48468 32.3703 6.51653C32.5205 6.53474 32.6661 6.58024 32.8026 6.64395C32.8709 6.67581 32.9391 6.71222 33.0028 6.75317C33.1212 6.83053 33.2349 6.9215 33.3305 7.03077C33.3806 7.08538 33.4215 7.13994 33.467 7.20365C33.508 7.26281 33.5444 7.32652 33.5762 7.39478L40.1566 20.8923H40.1611C40.1885 20.9469 40.2112 21.0015 40.2294 21.0606C40.2567 21.1426 40.2795 21.229 40.2931 21.3155ZM38.4854 23.1611L38.484 23.1608C38.4639 23.1569 38.441 23.1525 38.4182 23.1449C38.4291 23.1473 38.4401 23.15 38.4509 23.1528L38.451 23.1528C38.4626 23.1558 38.4741 23.1587 38.4854 23.1611ZM38.4854 23.1611L38.4956 23.1631L38.4895 23.1619L38.4854 23.1611ZM18.709 18.444L19.1095 19.2585L22.0993 25.3975L22.4998 26.2121L22.0902 26.4123C21.8809 26.517 21.6625 26.6034 21.4394 26.6671C21.0663 26.7764 20.684 26.831 20.3018 26.831C20.2016 26.831 20.1015 26.8264 20.0014 26.8173C19.9331 26.8128 19.8649 26.8037 19.7966 26.7946C19.7238 26.79 19.651 26.7764 19.5827 26.7627C19.4917 26.7491 19.4007 26.7309 19.3097 26.7081C19.3057 26.7061 19.3017 26.705 19.2981 26.704L19.2981 26.704C19.2935 26.7027 19.2895 26.7016 19.2869 26.699C19.1777 26.6717 19.0685 26.6398 18.9638 26.6034C18.8364 26.5579 18.709 26.5079 18.5861 26.4533C18.4633 26.3987 18.3449 26.3349 18.2266 26.2667C18.0127 26.1439 17.808 25.9982 17.6214 25.8344C17.5895 25.8116 17.5622 25.7843 17.5349 25.757C17.453 25.6842 17.3711 25.6068 17.2983 25.5249C17.2073 25.4248 17.1208 25.3247 17.0389 25.2155C16.9615 25.1153 16.8887 25.0107 16.825 24.9015C16.8183 24.8948 16.8141 24.8881 16.8088 24.8797C16.8068 24.8766 16.8047 24.8733 16.8022 24.8696C16.734 24.7604 16.6748 24.6466 16.6157 24.5283L16.4154 24.1187C15.9376 23.1358 15.8693 22.0208 16.2243 20.9878C16.5793 19.9548 17.3165 19.122 18.304 18.6396L18.709 18.444ZM28.22 24.4373L27.4008 24.8377L25.3575 25.8343L24.5384 26.2348L26.7319 30.7309C26.8911 31.0586 27.1687 31.3043 27.5146 31.4226C27.6602 31.4727 27.8104 31.5 27.9606 31.5C28.1653 31.5 28.3656 31.4545 28.5567 31.3589L29.7854 30.7628C30.1131 30.6035 30.3588 30.3259 30.4771 29.9801C30.5954 29.6342 30.5727 29.2656 30.4134 28.9379L28.22 24.4373ZM38.5034 13.8C38.335 13.8 38.1728 13.7061 38.0941 13.5445C37.984 13.3185 38.0777 13.0461 38.3035 12.9359L41.1663 11.5394C41.3943 11.4294 41.665 11.5236 41.7747 11.7489C41.8849 11.9749 41.7912 12.2473 41.5654 12.3575L38.7025 13.754C38.6381 13.7854 38.5701 13.8 38.5034 13.8ZM36.7126 10.4841C36.7753 10.5139 36.8415 10.5279 36.9068 10.5279C37.0775 10.5279 37.2406 10.4319 37.3184 10.2674L38.5654 7.63388C38.6733 7.4068 38.576 7.13548 38.3489 7.02795C38.1232 6.92042 37.8512 7.0173 37.7432 7.24461L36.4962 9.87817C36.3882 10.1052 36.4855 10.3765 36.7126 10.4841ZM40.1985 16.173L43.0414 16.8116C43.2867 16.8667 43.4409 17.11 43.3858 17.3553C43.3382 17.5668 43.1502 17.7106 42.9423 17.7106C42.9094 17.7106 42.8756 17.707 42.8423 17.6995L39.9994 17.0609C39.7541 17.0058 39.5999 16.7625 39.655 16.5171C39.7101 16.2723 39.9541 16.1179 40.1985 16.173Z" fill="#4C4C4C"/>
</svg>