<svg xmlns="http://www.w3.org/2000/svg" width="94" height="38" viewBox="0 0 94 38" fill="none">
<path fill-rule="evenodd" clip-rule="evenodd" d="M54.8531 5C53.6623 5 52.697 5.96537 52.697 7.15603V8.02633C52.9417 7.73825 53.2494 7.52097 53.6814 7.44901C53.9783 7.39957 54.2262 7.43802 54.4496 7.52041C54.4705 6.94339 54.9449 6.48227 55.5269 6.48227H65.1392C65.7345 6.48227 66.2171 6.96477 66.2171 7.56028V26.2459C66.2171 26.8414 65.7345 27.3239 65.1392 27.3239H55.5269C54.9315 27.3239 54.4488 26.8414 54.4488 26.2459V12.4426L52.697 15.3623V26.74C52.697 27.9306 53.6623 28.896 54.8531 28.896H58.4858V29.2451C58.4858 29.2848 58.5179 29.3171 58.5576 29.3171H58.8395V29.5922H58.6162C58.5756 29.5922 58.5431 29.6255 58.5446 29.6659C58.5538 29.908 58.5871 30.6853 58.6486 31.1194C58.7096 31.5496 58.8549 32.0426 58.9026 32.1981C58.9051 32.2063 58.909 32.2138 58.9139 32.2203C58.927 32.2375 58.9477 32.2479 58.9705 32.2479H61.6761C61.688 32.2479 61.6993 32.245 61.7092 32.2398C61.7243 32.2319 61.7363 32.2187 61.7424 32.202C61.773 32.1174 61.8395 31.924 61.9009 31.6865C61.9367 31.5479 61.9708 31.3938 61.9949 31.2373C62.0625 30.7997 62.116 29.9291 62.1311 29.668C62.1335 29.6266 62.1007 29.5922 62.0595 29.5922H61.8377V29.3171H62.1196C62.1358 29.3171 62.1507 29.3118 62.1627 29.3027C62.1719 29.2958 62.1794 29.2867 62.1845 29.2761C62.189 29.2667 62.1914 29.2562 62.1914 29.2451V28.896H65.8129C67.0037 28.896 67.9689 27.9306 67.9689 26.74V22.284C68.194 22.3891 68.8014 22.5738 68.8617 22.5907C68.9318 22.6104 68.9403 22.7732 68.9403 22.9304C68.9403 23.0876 69.0722 23.155 69.1873 23.155C69.3024 23.155 69.4035 23.0259 69.4315 22.9557C69.4482 22.9139 69.5087 22.8711 69.5656 22.8309L69.5657 22.8309L69.5678 22.8294L69.5724 22.8261L69.5729 22.8258C69.5895 22.814 69.6058 22.8024 69.6202 22.7911C69.6256 22.787 69.6307 22.7829 69.6355 22.7789C69.6369 22.7777 69.6383 22.7765 69.6396 22.7753C69.6482 22.7679 69.6557 22.7606 69.6617 22.7536C69.7022 22.7064 69.7853 22.6628 69.8218 22.6469C69.8604 22.6482 69.9388 22.6405 70.039 22.6281C70.1126 22.619 70.1983 22.6074 70.2884 22.5953L70.2921 22.5948C70.5774 22.5562 70.9087 22.5113 71.0626 22.5177C71.3321 22.529 71.7364 22.9613 71.7813 23.0567C71.8262 23.1522 71.9721 23.3599 72.1069 23.4722C72.2417 23.5845 72.4943 24.1291 72.5112 24.2639C72.528 24.3987 72.674 24.7468 72.775 24.8422C72.8761 24.9377 73.0502 25.3531 73.067 25.4654C73.0839 25.5777 73.1905 25.8528 73.3085 25.9988C73.4264 26.1448 73.7127 26.5041 73.7464 26.667C73.7801 26.8298 74.0327 27.1891 74.1507 27.2621C74.2686 27.3351 74.5325 27.6776 74.5886 27.8236C74.6447 27.9696 75.0321 28.4973 75.0658 28.5423C75.0995 28.5872 76.1326 30.3053 76.2674 30.5635C76.4022 30.8218 77.0646 31.1924 77.1545 31.2317C77.2444 31.271 77.3117 31.2878 77.497 31.198C77.6823 31.1082 79.1982 30.1649 79.2712 30.1087C79.2917 30.093 79.3068 30.0713 79.3177 30.0479C79.338 30.0047 79.3442 29.9558 79.3442 29.9291C79.3442 29.9159 79.343 29.8683 79.3394 29.7684C79.3368 29.6982 79.3329 29.6022 79.3273 29.4743C79.3139 29.1644 79.1271 28.7725 79.0354 28.6152C78.7116 28.1006 78.0427 27.0319 77.9574 26.8747C77.8507 26.6782 77.5756 26.302 77.3398 26.055C77.104 25.8079 76.1214 24.3369 75.953 23.9719C75.7845 23.607 75.0714 22.1528 74.8974 21.9394C74.7581 21.7687 74.5362 21.3068 74.4426 21.0972C74.4333 21.0373 74.3685 20.9029 74.1844 20.8446C74.0376 20.803 73.8655 20.5288 73.7157 20.2197L73.7136 20.2244C73.3951 20.082 72.8999 19.8577 72.4493 19.6476C72.0022 19.4391 71.59 19.2404 71.4442 19.1511C71.0994 18.9398 70.6168 18.6224 70.4754 18.0814C70.4176 17.8603 70.4402 17.6247 70.4873 17.4256C70.5141 17.3125 70.5495 17.208 70.5854 17.1203L67.9689 15.8322V7.15603C67.9689 5.96537 67.0037 5 65.8129 5H54.8531ZM68.3123 20.4682L67.9689 20.2753V20.028L68.333 20.2325L68.8059 20.0669L69.1093 19.4254L68.9226 18.9467L67.9689 18.4853V18.2458L69.0927 18.7894L69.3439 19.4336L68.9623 20.2406L68.3123 20.4682ZM60.5413 7.69503C60.4814 7.73398 60.4099 7.75679 60.333 7.75679C60.2525 7.75679 60.1778 7.73188 60.1162 7.68943C60.0165 7.62064 59.9512 7.50554 59.9512 7.37501C59.9512 7.2599 60.0022 7.15672 60.0828 7.08655C60.1498 7.02829 60.2373 6.9932 60.333 6.9932C60.5439 6.9932 60.7148 7.16411 60.7148 7.37501C60.7148 7.50906 60.6457 7.62695 60.5413 7.69503ZM70.7794 17.2158L71.0907 17.3691C71.2367 17.4196 71.6578 17.5488 72.1743 17.6611C72.82 17.8014 73.5779 18.3067 73.9654 19.1995C74.0661 19.4317 74.1404 19.6106 74.1983 19.7499L74.1993 19.7523L74.2002 19.7546C74.3626 20.1462 74.3945 20.2228 74.5268 20.3056C74.6706 20.3954 74.6391 20.4815 74.6054 20.5133C74.5999 20.5526 74.5493 20.6065 74.3921 20.5077C74.1956 20.3842 73.8812 20.1708 73.825 19.9687C73.7689 19.7666 73.6959 19.5363 73.4151 19.4858C73.4328 19.5375 73.4537 19.5957 73.4771 19.6583C73.5089 19.743 73.5454 19.8355 73.5854 19.9305C73.2827 19.7941 72.8975 19.6187 72.5404 19.4522C72.0878 19.2411 71.6895 19.0486 71.5568 18.9673C71.2054 18.7518 70.8009 18.474 70.684 18.0269C70.6385 17.8528 70.6543 17.656 70.6971 17.4753C70.7085 17.4272 70.7216 17.3809 70.7356 17.3374C70.7496 17.2939 70.7645 17.2531 70.7794 17.2158ZM71.2423 18.3825C71.3585 18.3825 71.4528 18.2883 71.4528 18.172C71.4528 18.0557 71.3585 17.9614 71.2423 17.9614C71.126 17.9614 71.0317 18.0557 71.0317 18.172C71.0317 18.2883 71.126 18.3825 71.2423 18.3825ZM76.2712 29.3844C76.2712 29.478 76.1954 29.5538 76.1018 29.5538C76.0082 29.5538 75.9324 29.478 75.9324 29.3844C75.9324 29.2908 76.0082 29.215 76.1018 29.215C76.1954 29.215 76.2712 29.2908 76.2712 29.3844ZM76.6351 30.4493C76.7288 30.4493 76.8046 30.3735 76.8046 30.2799C76.8046 30.1864 76.7288 30.1105 76.6351 30.1105C76.5416 30.1105 76.4658 30.1864 76.4658 30.2799C76.4658 30.3735 76.5416 30.4493 76.6351 30.4493ZM73.5979 19.1124C73.5979 19.2087 73.5198 19.2868 73.4235 19.2868C73.3272 19.2868 73.2492 19.2087 73.2492 19.1124C73.2492 19.0161 73.3272 18.938 73.4235 18.938C73.5198 18.938 73.5979 19.0161 73.5979 19.1124ZM69.1813 23.014C69.2416 23.014 69.2905 22.9651 69.2905 22.9048C69.2905 22.8445 69.2416 22.7957 69.1813 22.7957C69.121 22.7957 69.0721 22.8445 69.0721 22.9048C69.0721 22.9651 69.121 23.014 69.1813 23.014ZM36.8436 8.51764C36.5499 8.6118 36.4181 8.95316 36.5723 9.22028L43.1991 20.6983C43.0103 20.7238 42.86 20.8768 42.8421 21.0712L42.6777 22.8545H41.9395C41.2524 22.8545 40.6953 23.4113 40.6953 24.0984V31.006C40.6953 31.6932 41.2524 32.25 41.9395 32.25H49.9051C50.5922 32.25 51.1492 31.6932 51.1492 31.006V24.0984C51.1492 23.4113 50.5922 22.8545 49.9051 22.8545H49.1774L49.0041 21.0692C48.9856 20.8783 48.8398 20.7281 48.6556 20.6994L55.2831 9.22028C55.4373 8.95316 55.3055 8.6118 55.0118 8.51764L53.9133 8.16547C53.6965 8.09578 53.4605 8.18691 53.3466 8.38416L49.298 15.3966L49.2238 15.3734C49.2037 15.367 49.1829 15.3657 49.163 15.3686C49.1383 15.3721 49.1149 15.3822 49.0954 15.3981C49.0939 15.3993 49.0924 15.4006 49.0909 15.4019C49.0885 15.4041 49.0862 15.4063 49.0839 15.4086C49.0816 15.411 49.0794 15.4135 49.0772 15.416C49.0747 15.4191 49.0723 15.4222 49.0699 15.4255C49.0675 15.429 49.0652 15.4326 49.063 15.4364L46.0271 20.6946H45.8282L42.7924 15.4364C42.7857 15.4248 42.7777 15.4146 42.7685 15.4058C42.7634 15.4008 42.7578 15.3963 42.752 15.3922C42.7344 15.3797 42.7138 15.3716 42.6923 15.3686C42.6821 15.3671 42.6715 15.3667 42.6609 15.3676C42.6566 15.368 42.6523 15.3686 42.6481 15.3693C42.6452 15.3699 42.6423 15.3705 42.6394 15.3712C42.6368 15.3719 42.6342 15.3726 42.6316 15.3734L42.5574 15.3966L38.5088 8.38416C38.3949 8.18691 38.1589 8.09578 37.9421 8.16547L36.8436 8.51764ZM44.574 26.4743C44.574 26.3599 44.6669 26.2671 44.7814 26.2671H47.0631C47.127 26.2671 47.1843 26.2961 47.2223 26.3417C47.2524 26.3776 47.2705 26.4238 47.2705 26.4743V28.7597C47.2705 28.8742 47.1776 28.967 47.0631 28.967H44.7814C44.7336 28.967 44.6896 28.9508 44.6545 28.9234C44.6055 28.8856 44.574 28.8266 44.574 28.7597V26.4743ZM23.7708 5.78073H52.1623C52.0348 6.04223 51.9633 6.336 51.9633 6.64649V6.75609H23.6932L23.4644 10.4375H22.7373C22.6118 10.4375 22.4918 10.4606 22.3811 10.5028L22.5915 6.89329C22.6279 6.26864 23.1451 5.78073 23.7708 5.78073ZM34.1396 24.629H39.7191V31.4906C39.7191 31.7952 39.8566 32.0675 40.073 32.249H33.9116C34.0541 32.0762 34.1396 31.8547 34.1396 31.6133V24.629ZM15.5099 14.7525H15.5101C15.4693 13.9789 15.428 13.2744 15.3927 12.7026C15.3677 12.2972 15.6893 11.9564 16.0908 11.9564H19.2433C19.6532 11.9564 19.9798 12.3111 19.9433 12.7263C19.7726 14.668 19.506 18.0979 19.506 20.6042C19.506 23.3456 19.8251 27.1942 19.989 28.9928C20.0018 29.1329 19.8917 29.2521 19.7536 29.2521H19.7535H15.5957H15.5956C15.4607 29.2521 15.3527 29.1379 15.3614 29.0016C15.4757 27.2135 15.7008 23.3465 15.7008 20.6042C15.7008 18.8345 15.607 16.5969 15.5099 14.7525ZM20.1976 20.6042C20.1976 18.8377 20.3324 16.5966 20.4716 14.7525H20.803C21.0577 14.7525 21.2642 14.959 21.2642 15.2137V22.2473H22.3596V11.8987C22.3596 11.644 22.5661 11.4375 22.8208 11.4375H31.6128C31.8675 11.4375 32.074 11.644 32.074 11.8987V22.2473H32.2181C32.7276 22.2473 33.1406 22.6603 33.1406 23.1698V31.3276C33.1406 31.837 32.7276 32.25 32.2181 32.25H21.2642H14.9224C14.413 32.25 14 31.837 14 31.3276V15.2137C14 14.959 14.2065 14.7525 14.4612 14.7525H14.8171C14.9146 16.5972 15.0089 18.839 15.0089 20.6042C15.0089 23.3216 14.7853 27.1682 14.671 28.9575C14.6369 29.4916 15.0604 29.9439 15.5956 29.9439H19.7535C20.2997 29.9439 20.7274 29.474 20.6778 28.93C20.5138 27.1298 20.1976 23.3102 20.1976 20.6042ZM30.8201 12.9941H23.6135V24.2075H30.8201V12.9941Z" fill="#4C4C4C"/>
</svg>