<svg xmlns="http://www.w3.org/2000/svg" width="79" height="38" viewBox="0 0 79 38" fill="none">
<path fill-rule="evenodd" clip-rule="evenodd" d="M32.4398 5H31.5019C30.12 5 29 6.14832 29 7.56467V13.9564H31.7755V14.277H29V15.4392H31.7755V15.7597H29V16.9219H31.7755V17.2424H29V18.4046H31.7755V18.7251H29V19.8873H31.7755V20.2079H29V21.37H31.7755V21.6906H29V22.8527H31.7755V23.1732H29V24.3354H31.7755V24.6561H29V29.6853C29 31.1017 30.12 32.25 31.5019 32.25H40.0022C39.9083 32.1178 39.8321 31.9716 39.7771 31.8151C39.7122 31.6309 39.677 31.4324 39.677 31.2253V18.3274C39.677 17.3653 40.4378 16.5856 41.376 16.5856H45.0156V15.7597H44.4992V15.4392H45.0156V14.277H44.4992V13.9564H45.0156V12.7943H44.4992V12.4737H45.0156V10.3356C45.0156 9.54914 45.6375 8.91169 46.4043 8.91169H47.2941V7.56467C47.2941 6.14832 46.1741 5 44.7925 5H32.8698V6.42266H32.4398V5ZM38.4403 6.40252C38.5373 6.40252 38.6162 6.32181 38.6162 6.2222C38.6162 6.1674 38.5923 6.11838 38.5547 6.08546C38.524 6.05833 38.484 6.04187 38.4403 6.04187C38.4024 6.04187 38.3672 6.05412 38.3385 6.07513C38.2938 6.10787 38.2644 6.16145 38.2644 6.2222C38.2644 6.28855 38.2996 6.3465 38.3515 6.37784C38.3774 6.39359 38.4078 6.40252 38.4403 6.40252ZM40.6417 6.31744C40.6331 6.33161 40.6225 6.34457 40.6105 6.35577C40.5795 6.38484 40.5378 6.40252 40.4924 6.40252C40.3954 6.40252 40.3165 6.32181 40.3165 6.2222C40.3165 6.12258 40.3954 6.04187 40.4924 6.04187C40.5388 6.04187 40.5812 6.06025 40.6126 6.09019C40.6468 6.1231 40.6682 6.17002 40.6682 6.2222C40.6682 6.25721 40.6587 6.28977 40.6417 6.31744ZM42.5448 6.40252C42.595 6.40252 42.6404 6.38081 42.6725 6.34615C42.7023 6.31376 42.7207 6.27017 42.7207 6.2222C42.7207 6.12258 42.6418 6.04187 42.5448 6.04187C42.4474 6.04187 42.3689 6.12258 42.3689 6.2222C42.3689 6.32181 42.4474 6.40252 42.5448 6.40252ZM37.6892 13.1364C37.6592 13.1606 37.6216 13.1749 37.5803 13.1749C37.4832 13.1749 37.4043 13.0943 37.4043 12.9946C37.4043 12.8952 37.4832 12.8143 37.5803 12.8143C37.6305 12.8143 37.6755 12.8357 37.7076 12.8702C37.7377 12.9025 37.7562 12.9463 37.7562 12.9946C37.7562 13.052 37.7299 13.1033 37.6892 13.1364ZM37.5803 15.4392C37.6776 15.4392 37.7562 15.3584 37.7562 15.2588C37.7562 15.1592 37.6776 15.0785 37.5803 15.0785C37.4832 15.0785 37.4043 15.1592 37.4043 15.2588C37.4043 15.3584 37.4832 15.4392 37.5803 15.4392ZM37.7562 17.5229C37.7562 17.6226 37.6776 17.7032 37.5803 17.7032C37.4832 17.7032 37.4043 17.6226 37.4043 17.5229C37.4043 17.4235 37.4832 17.3426 37.5803 17.3426C37.6776 17.3426 37.7562 17.4235 37.7562 17.5229ZM37.5803 19.9675C37.6776 19.9675 37.7562 19.8867 37.7562 19.7871C37.7562 19.6875 37.6776 19.6068 37.5803 19.6068C37.4832 19.6068 37.4043 19.6875 37.4043 19.7871C37.4043 19.8372 37.4241 19.8826 37.4566 19.9153C37.4883 19.9475 37.5321 19.9675 37.5803 19.9675ZM37.7562 22.0512C37.7562 22.1508 37.6776 22.2315 37.5803 22.2315C37.5434 22.2315 37.5088 22.2198 37.4805 22.1998C37.4511 22.179 37.4283 22.1491 37.4153 22.1141C37.4081 22.0944 37.4043 22.0733 37.4043 22.0512C37.4043 21.9518 37.4832 21.8709 37.5803 21.8709C37.6776 21.8709 37.7562 21.9518 37.7562 22.0512ZM37.5803 24.4958C37.6776 24.4958 37.7562 24.4151 37.7562 24.3154C37.7562 24.2566 37.7288 24.2043 37.6862 24.1714C37.6564 24.1486 37.6199 24.1351 37.5803 24.1351C37.54 24.1351 37.503 24.1489 37.4734 24.1722C37.4313 24.2052 37.4043 24.257 37.4043 24.3154C37.4043 24.3708 37.4286 24.4201 37.4669 24.4532C37.4976 24.4799 37.5372 24.4958 37.5803 24.4958ZM39.2026 15.2588C39.2026 15.3084 39.1832 15.3534 39.1514 15.386C39.1197 15.4189 39.0756 15.4392 39.0268 15.4392C38.9294 15.4392 38.8508 15.3584 38.8508 15.2588C38.8508 15.1592 38.9294 15.0785 39.0268 15.0785C39.1237 15.0785 39.2026 15.1592 39.2026 15.2588ZM39.0268 22.1916C39.1237 22.1916 39.2026 22.1107 39.2026 22.0113C39.2026 21.9117 39.1237 21.831 39.0268 21.831C38.9905 21.831 38.9571 21.842 38.9291 21.8611C38.8819 21.8935 38.8508 21.9486 38.8508 22.0113C38.8508 22.1107 38.9294 22.1916 39.0268 22.1916ZM45.7151 10.3356C45.7151 9.94516 46.0239 9.62879 46.4043 9.62879H50.6062C50.9867 9.62879 51.2955 9.94516 51.2955 10.3356V31.5432C51.2955 31.7234 51.2299 31.8878 51.1216 32.0126C50.9952 32.1583 50.8111 32.25 50.6062 32.25H47.0229C47.1408 32.0843 47.2306 31.8965 47.2856 31.694C47.3262 31.5448 47.3481 31.3876 47.3481 31.2253V31.1017H50.1157C50.1499 31.1017 50.181 31.088 50.2042 31.0658C50.2291 31.0418 50.2449 31.0075 50.2449 30.9695C50.2449 30.8965 50.1872 30.8373 50.1157 30.8373H47.3481V29.571H50.0836L50.0994 29.5705L50.1147 29.5689C50.1297 29.5668 50.1437 29.5633 50.1574 29.5586C50.1758 29.5521 50.1932 29.5434 50.2093 29.5327C50.2168 29.5276 50.224 29.522 50.2312 29.516L50.2391 29.5089L50.2469 29.5013L50.2585 29.4882C50.264 29.4817 50.2691 29.4747 50.2739 29.4676C50.2988 29.4299 50.3135 29.3844 50.3135 29.3355V13.3325C50.3135 13.2024 50.2104 13.0971 50.0836 13.0971H46.927C46.8003 13.0971 46.6974 13.2024 46.6974 13.3325V16.9565C46.4248 16.7371 46.085 16.6013 45.7151 16.5868V10.3356ZM48.5053 11.6506C48.8263 11.6506 49.087 11.3837 49.087 11.0544C49.087 10.906 49.034 10.7701 48.9462 10.6658C48.8397 10.5387 48.6815 10.4583 48.5053 10.4583C48.1842 10.4583 47.924 10.7253 47.924 11.0544C47.924 11.1948 47.9715 11.3239 48.0504 11.4258C48.1569 11.5628 48.3212 11.6506 48.5053 11.6506ZM49.52 10.7542C49.5286 10.7437 49.5381 10.734 49.5484 10.7258L49.561 10.7169L49.5747 10.709C49.5846 10.7039 49.5952 10.6997 49.6065 10.6967C49.6194 10.6932 49.6328 10.6915 49.6471 10.6915C49.7362 10.6915 49.8086 10.7659 49.8086 10.8575V11.2281C49.8086 11.3197 49.7362 11.3941 49.6471 11.3941C49.5904 11.3941 49.5402 11.3641 49.5115 11.3188C49.4948 11.2927 49.4852 11.2615 49.4852 11.2281V10.8575C49.4852 10.8184 49.4982 10.7825 49.52 10.7542ZM50.446 11.1374C50.4962 11.1374 50.5369 11.0956 50.5369 11.0441C50.5369 10.9926 50.4962 10.9508 50.446 10.9508C50.3955 10.9508 50.3548 10.9926 50.3548 11.0441C50.3548 11.0956 50.3955 11.1374 50.446 11.1374ZM46.6558 11.0441C46.6558 11.0956 46.6151 11.1374 46.5645 11.1374C46.5144 11.1374 46.4737 11.0956 46.4737 11.0441C46.4737 11.032 46.4758 11.0205 46.4798 11.01C46.4863 10.993 46.4976 10.9783 46.5123 10.9678C46.5205 10.9618 46.5301 10.9571 46.54 10.9543C46.5478 10.952 46.556 10.9508 46.5645 10.9508C46.6151 10.9508 46.6558 10.9926 46.6558 11.0441ZM41.376 17.3027C40.824 17.3027 40.3765 17.7614 40.3765 18.3274V31.2253C40.3765 31.7911 40.824 32.25 41.376 32.25H45.6492C46.2011 32.25 46.6486 31.7911 46.6486 31.2253V18.3274C46.6486 17.7614 46.2011 17.3027 45.6492 17.3027H41.376ZM41.7602 30.5335C41.6311 30.5335 41.5259 30.6412 41.5259 30.7738C41.5259 30.8401 41.5522 30.9002 41.5946 30.9436C41.6369 30.987 41.6957 31.014 41.7602 31.014H45.2649C45.394 31.014 45.4993 30.9065 45.4993 30.7738C45.4993 30.6412 45.394 30.5335 45.2649 30.5335H41.7602Z" fill="#4C4C4C"/>
</svg>