<svg xmlns="http://www.w3.org/2000/svg" width="109" height="38" viewBox="0 0 109 38" fill="none">
<path fill-rule="evenodd" clip-rule="evenodd" d="M75.5532 7.16797C72.5681 7.16797 70.148 9.5878 70.148 12.5733V24.5315C70.2918 24.5393 70.4746 24.5473 70.7048 24.5558C71.5449 24.5859 73.016 24.6158 75.5378 24.6158C77.2332 24.6158 78.4536 24.6024 79.3267 24.5844V20.1153C79.3267 18.6246 79.9531 17.2838 80.9584 16.3236V12.5733C80.9584 9.5878 78.5383 7.16797 75.5532 7.16797ZM75.5378 24.809C77.2314 24.809 78.4521 24.7953 79.3267 24.7773V27.8132C79.3267 29.149 79.9592 30.3314 80.9412 31.0999C80.802 31.1385 79.7541 31.383 75.5532 31.383C70.9922 31.383 70.148 31.0949 70.148 31.0949V24.7247C70.2326 24.7291 70.3301 24.7337 70.442 24.7384C70.5201 24.7418 70.6053 24.7452 70.6979 24.7484C71.2343 24.7676 72.0257 24.7869 73.1802 24.7985C73.4761 24.8013 73.7959 24.8037 74.1413 24.8056C74.5667 24.8078 75.0311 24.809 75.5378 24.809ZM75.5479 8.02986C73.0891 8.02986 71.0958 10.0231 71.0958 12.4818V13.9147C71.0958 16.0818 72.8523 17.8383 75.0193 17.8383H76.0764C78.2434 17.8383 79.9999 16.0818 79.9999 13.9147V12.4818C79.9999 10.0231 78.0066 8.02986 75.5479 8.02986ZM77.8593 12.9744C77.8593 14.2507 76.8245 15.2856 75.5479 15.2856C74.2712 15.2856 73.2364 14.2507 73.2364 12.9744C73.2364 11.6977 74.2712 10.6628 75.5479 10.6628C76.8245 10.6628 77.8593 11.6977 77.8593 12.9744ZM76.6333 12.9744C76.6333 13.5737 76.1474 14.0597 75.5479 14.0597C74.9483 14.0597 74.4625 13.5737 74.4625 12.9744C74.4625 12.3748 74.9483 11.8888 75.5479 11.8888C76.1474 11.8888 76.6333 12.3748 76.6333 12.9744ZM75.6448 15.9266C75.6199 15.9512 75.5857 15.9664 75.5479 15.9664C75.4715 15.9664 75.4097 15.9048 75.4097 15.8283C75.4097 15.752 75.4715 15.6901 75.5479 15.6901C75.6242 15.6901 75.686 15.752 75.686 15.8283C75.686 15.8668 75.6703 15.9017 75.6448 15.9266ZM75.5479 10.2985C75.5851 10.2985 75.6189 10.2838 75.6438 10.2599C75.6698 10.2347 75.686 10.1992 75.686 10.1603C75.686 10.1398 75.6816 10.1205 75.6736 10.1031C75.6519 10.0555 75.6037 10.0222 75.5479 10.0222C75.5262 10.0222 75.5056 10.0271 75.4874 10.0362C75.4618 10.0486 75.4406 10.0688 75.4268 10.0937C75.4159 10.1133 75.4097 10.136 75.4097 10.1603C75.4097 10.2365 75.4715 10.2985 75.5479 10.2985ZM79.9639 20.1153C79.9639 17.5399 82.1037 15.4521 84.7432 15.4521C87.3827 15.4521 89.5225 17.5399 89.5225 20.1153V27.8132C89.5225 29.7847 87.8844 31.383 85.8637 31.383H83.6227C81.602 31.383 79.9639 29.7847 79.9639 27.8132V20.1153ZM81.982 20.2214C81.982 18.7335 83.2182 17.5271 84.7432 17.5271C86.2682 17.5271 87.5044 18.7335 87.5044 20.2214V22.7315C87.5044 24.2194 86.2682 25.4257 84.7432 25.4257C83.2182 25.4257 81.982 24.2194 81.982 22.7315V20.2214ZM84.7432 27.7684C84.6422 27.7684 84.5602 27.8484 84.5602 27.947V29.3192C84.5602 29.4178 84.6422 29.4978 84.7432 29.4978C84.8442 29.4978 84.9262 29.4178 84.9262 29.3192V27.947C84.9262 27.8484 84.8442 27.7684 84.7432 27.7684ZM86.4468 20.2158C86.4468 21.1337 85.6841 21.878 84.7432 21.878C83.8023 21.878 83.0396 21.1337 83.0396 20.2158C83.0396 19.2976 83.8023 18.5536 84.7432 18.5536C85.6841 18.5536 86.4468 19.2976 86.4468 20.2158ZM69.4319 19.7597L67.7239 17.7989C66.6822 15.2997 64.2076 13.5421 61.32 13.5421C58.4436 13.5421 55.9759 15.2863 54.9265 17.77L47.6055 26.1578L47.6452 26.1634H47.6055L48.0241 27.7019C48.1118 27.7144 48.2067 27.7274 48.3092 27.7408L48.4548 27.7593C48.5186 27.7674 48.5851 27.7755 48.6544 27.7836C48.7421 27.7938 48.8342 27.8042 48.9308 27.8146C49.1623 27.8396 49.4198 27.865 49.706 27.8907C51.7727 28.0753 55.3277 28.2604 61.2754 28.2604C64.7513 28.2604 67.4099 28.1972 69.4319 28.1078V19.7597ZM69.4319 28.345C67.4068 28.4344 64.7477 28.4973 61.2754 28.4973C55.3233 28.4973 51.7608 28.3123 49.6847 28.1267C49.4351 28.1045 49.2068 28.082 48.9984 28.0598C48.8588 28.045 48.7282 28.0305 48.6059 28.0161C48.4143 27.9937 48.2435 27.9719 48.0917 27.9509L48.736 30.3186C48.736 30.3186 49.6582 31.3848 61.3052 31.3848C64.9819 31.3848 67.5872 31.282 69.4319 31.1402V28.345ZM67.9094 18.2975C68.1133 18.9189 68.231 19.5795 68.2484 20.2645C68.1338 22.6814 65.0757 24.6179 61.32 24.6179C57.5644 24.6179 54.5063 22.6814 54.3917 20.2645H54.3895C54.4069 19.5816 54.524 18.9231 54.7268 18.3033C54.3464 18.8747 54.1355 19.5054 54.1355 20.1683C54.1355 22.7565 57.3521 24.8548 61.32 24.8548C65.288 24.8548 68.5046 22.7565 68.5046 20.1683C68.5046 19.5034 68.2923 18.8706 67.9094 18.2975ZM67.6418 20.1609C67.5554 16.7585 64.7586 14.0268 61.3199 14.0268C57.8813 14.0268 55.0825 16.7585 54.9961 20.1609H54.9981C55.1027 22.366 57.893 24.1332 61.3199 24.1332C64.7469 24.1332 67.5373 22.366 67.6418 20.1609ZM60.6432 30.6592C60.5406 30.6592 60.4573 30.742 60.4573 30.8443C60.4573 30.9465 60.5406 31.0294 60.6432 31.0294H61.9671C62.0233 31.0294 62.0737 31.0046 62.1078 30.9653C62.136 30.9329 62.153 30.8906 62.153 30.8443C62.153 30.7976 62.1357 30.7547 62.107 30.7221C62.0729 30.6835 62.0229 30.6592 61.9671 30.6592H60.6432ZM63.5215 19.4205C63.5215 20.6308 62.5359 21.612 61.32 21.612C60.1042 21.612 59.1186 20.6308 59.1186 19.4205C59.1186 18.2103 60.1042 17.2291 61.32 17.2291C62.5359 17.2291 63.5215 18.2103 63.5215 19.4205ZM48.293 30.793C48.5706 31.0053 49.3198 31.2067 50.2864 31.3835H22.171C21.8293 31.3835 21.5524 31.1065 21.5524 30.7649V19.4758C21.5524 19.1342 21.8293 18.8572 22.171 18.8572H53.1862L51.9079 20.3309H42.9212V24.3835H48.3928L47.1145 25.8571H38.1318V29.9098H48.0505L48.293 30.793ZM69.457 18.4788V16.6367H67.7201C67.7652 16.7289 67.8127 16.8271 67.8595 16.9239L67.8602 16.9253C67.9854 17.1844 68.1058 17.4334 68.1641 17.5312L69.0141 18.4788H69.457ZM26.7158 16.6367H54.9614C54.7788 16.9093 54.6293 17.1483 54.543 17.293L53.5144 18.4788H23.0989C22.7608 18.4788 22.6679 18.014 22.98 17.884L25.2882 16.9222C25.7405 16.7338 26.2257 16.6367 26.7158 16.6367ZM69.457 18.8572H69.3535L69.457 18.9727V18.8572ZM43.5399 20.9495H51.3714L48.9293 23.7649H43.5399V20.9495ZM47.1079 26.4758L47.8807 29.2912H38.7504V26.4758H47.1079ZM19.2241 18.8572C18.8824 18.8572 18.6055 19.1342 18.6055 19.4758V30.7649C18.6055 31.1065 18.8824 31.3835 19.2241 31.3835H20.5658C20.9074 31.3835 21.1844 31.1065 21.1844 30.7649V19.4758C21.1844 19.1342 20.9074 18.8572 20.5658 18.8572H19.2241ZM19.8951 19.5939C19.5899 19.5939 19.3425 19.8413 19.3425 20.1466C19.3425 20.4518 19.5899 20.6992 19.8951 20.6992C20.2003 20.6992 20.4478 20.4518 20.4478 20.1466C20.4478 19.8413 20.2003 19.5939 19.8951 19.5939ZM19.3425 30.094C19.3425 29.7888 19.5899 29.5414 19.8951 29.5414C20.2003 29.5414 20.4478 29.7888 20.4478 30.094C20.4478 30.3992 20.2003 30.6466 19.8951 30.6466C19.5899 30.6466 19.3425 30.3992 19.3425 30.094ZM22.908 20.6995C22.5664 20.6995 22.2894 20.9764 22.2894 21.3181V23.3966C22.2894 23.7383 22.5664 24.0153 22.908 24.0153H24.9866C25.3282 24.0153 25.6052 23.7383 25.6052 23.3966V21.3181C25.6052 20.9764 25.3282 20.6995 24.9866 20.6995H22.908ZM27.6975 20.9496H41.5655V23.765H27.6975V20.9496ZM27.0789 24.3836V20.3309H42.1841V24.3836H27.0789ZM23.2765 26.4758H37.1446V29.2912H23.2765V26.4758ZM22.6579 29.9098V25.8571H37.7632V29.9098H22.6579Z" fill="#4C4C4C"/>
</svg>