<?xml version="1.0" standalone="no"?><!DOCTYPE svg PUBLIC "-//W3C//DTD SVG 1.1//EN" "http://www.w3.org/Graphics/SVG/1.1/DTD/svg11.dtd">
<svg t="1748161614062" class="icon" viewBox="0 0 1024 1024" version="1.1" xmlns="http://www.w3.org/2000/svg" p-id="2578" xmlns:xlink="http://www.w3.org/1999/xlink" width="200" height="200">
	<path d="M512 512m-450 0a450 450 0 1 0 900 0 450 450 0 1 0-900 0Z" fill="currentColor" p-id="2579"></path>
	<path d="M830.18995156 191.95471953c175.73597051 175.73597051 175.7435669 460.67241709-0.00759638 636.42168018-175.7435669 175.7435669-460.68571055 175.7435669-636.42168106 0.00759638L830.18995156 191.95471953z" fill="currentColor" p-id="2580"></path>
	<path d="M949.55580987 616.94290302L679.79242549 347.18521661l-53.47602598 53.47602597-132.10819277-103.66487139-206.95184121 206.95184121 91.53401747 144.23714737-35.72031357 35.72031445 267.19972471 267.19972471c167.35945254-37.30408594 299.50182685-167.74874912 339.28601573-334.1624959z" fill="currentColor" p-id="2581"></path>
	<path d="M917.60312481 707.10583818L534.01328458 323.50840244l-62.30830606 16.13016211-80.5273752 37.89467666-33.75864053 109.54799385-2.20284756 93.38934726L696.95184922 922.20631631c96.42395918-43.55751445 174.80545752-119.96974248 220.65127559-215.10047813z" fill="currentColor" p-id="2582"></path>
	<path d="M749.43469531 556.52410917a236.49088886 236.49088886 0 0 0 2.91307588-37.04202333c0-131.09222461-106.27220742-237.36253271-237.3701291-237.36253271-12.5847167 0-24.9700377 1.036858-37.03442696 2.91307588-21.86326318-13.50763418-47.66506612-21.33913711-75.32029862-21.33913711-79.21326269 0-143.44146386 64.1997167-143.44146476 143.42627197a143.01798575 143.01798575 0 0 0 21.35243057 75.34118847c-1.86862237 12.09287373-2.8997833 24.40793232-2.89978329 37.02683057 0 131.09222461 106.27220742 237.32835117 237.33594755 237.32835117 12.59041377 0 24.98333115-0.96659472 37.04961885-2.87129794a143.01418799 143.01418799 0 0 0 75.32599571 21.36002607c79.22845459 0 143.44906026-64.23579756 143.44906024-143.45475732-0.00189932-27.65523339-7.83150293-53.44184355-21.36002607-75.32599571z m-121.76240449 70.89941163c-10.04004756 14.46093545-24.78393545 25.75812568-44.06834795 33.88017657-19.31289698 8.13534433-42.13705781 12.18592529-68.49147129 12.18592529-31.59947021 0-57.76208438-5.52041191-78.40428574-16.68467198-14.63754287-7.99291846-26.53292021-18.72420557-35.6918291-32.09700937-9.16650527-13.38609727-13.81337402-26.48924297-13.81337403-39.26575986 0-7.53905654 2.87129795-14.0982249 8.46956953-19.43443389 5.65524141-5.37988536 12.93983086-8.08597002 21.53093643-8.08597002 7.04151651 0 13.08795381 2.12498877 18.01207794 6.33128818 4.88804326 4.20629942 8.98799854 10.30400948 12.34164375 18.36149503 4.0145001 9.33741563 8.38411435 17.15372666 13.03098398 23.37107431 4.61078789 6.15278145 11.10539092 11.29149317 19.52558613 15.31169033 8.32714365 4.02969199 19.39075664 6.0464373 33.2535041 6.04643731 18.9653792 0 34.29226143-4.09235888 46.02242549-12.20111807 11.7890332-8.15813262 17.45756807-18.0975331 17.45756718-30.09925459 0-9.57858926-3.05550176-17.19550459-9.31462734-23.12230429-6.31609629-5.99706299-14.47422803-10.57936553-24.60732714-13.7715961-10.16158447-3.2188166-23.81164365-6.64462441-40.91409756-10.23944327-22.95899033-5.0095793-42.17883574-10.85092383-57.72600264-17.55061962-15.57565224-6.7224832-27.98186221-15.91747383-37.16925644-27.52799942-9.2082832-11.724467-13.80577763-26.29744365-13.80577852-43.57080791 0-16.46438731 4.84626445-31.19308242 14.55968408-43.99808378 9.70582237-12.83918379 23.74707744-22.67413857 42.05160264-29.53145216 18.2399581-6.84971719 39.71962266-10.26792862 64.31935341-10.2679286 19.67560752 0 36.6869083 2.27311084 51.096571 6.81363544 14.36788388 4.55381807 26.34112089 10.57366846 35.91971015 18.14121035 9.52161943 7.53146016 16.51376162 15.49019707 20.94794122 23.8325335 4.42658408 8.37841729 6.66551338 16.54224698 6.66551338 24.51427559 0 7.41751963-2.87129795 14.14000283-8.46956953 20.04591445-5.60017089 5.89831435-12.76132412 8.91013887-21.13214502 8.88165351-7.54665205 0-13.46585625-1.73379287-17.56581153-5.42925966-4.00120664-3.5530418-8.19231416-9.23107148-12.73283876-17.13853477-5.74069658-11.04272315-12.61320205-19.6262332-20.6061214-25.77901465-7.78023018-6.03314385-20.6137169-9.17979786-38.48336894-9.13801992-16.5270542 0-29.75743388 3.37453506-39.74241005 9.97548135-10.04004756 6.71488769-14.85023203 14.50271338-14.87112101 23.63313779 0.02088896 5.71980761 1.65593408 10.52999121 4.96780138 14.65843184 3.3612416 4.16452148 8.02900019 7.76693672 14.04125507 10.80724658a97.70389013 97.70389013 0 0 0 18.26844346 7.19153789c6.20975127 1.75468183 16.51376162 4.29935098 30.85316016 7.67388603 17.97029912 3.87207422 34.28466504 8.19991055 48.93740068 12.9189419 14.62425029 4.74561739 27.09312714 10.45972881 37.41043008 17.28095976 10.3951626 6.78515097 18.51721347 15.44841914 24.30918369 25.90624864 5.83374815 10.47302138 8.73922852 23.26473018 8.73922852 38.32765048-0.00949482 18.11652276-5.06085292 34.40999971-15.12178946 48.84244981z" fill="#ffffff" p-id="2583"></path>
</svg>