<svg width="28" height="28" viewBox="0 0 28 28" fill="none" xmlns="http://www.w3.org/2000/svg">
<rect width="28" height="28" rx="2" fill="#FB000E"/>
<path d="M19.0309 11.4699C18.9102 11.0176 18.5539 10.6613 18.1027 10.5406C17.2836 10.3203 14 10.3203 14 10.3203C14 10.3203 10.7164 10.3203 9.89727 10.5395C9.44492 10.6602 9.08984 11.0164 8.96914 11.4688C8.75 12.2891 8.75 14 8.75 14C8.75 14 8.75 15.7109 8.96914 16.5301C9.08984 16.9824 9.44609 17.3387 9.89727 17.4594C10.7164 17.6797 14 17.6797 14 17.6797C14 17.6797 17.2836 17.6797 18.1027 17.4594C18.5551 17.3387 18.9102 16.9824 19.0309 16.5301C19.25 15.7109 19.25 14 19.25 14C19.25 14 19.25 12.2891 19.0309 11.4699ZM12.957 15.5703V12.4297L15.6758 13.9883L12.957 15.5703Z" fill="white"/>
</svg>
