<svg width="42" height="35" viewBox="0 0 42 35" fill="none" xmlns="http://www.w3.org/2000/svg">
<g clip-path="url(#clip0_319_1282)">
<path fill-rule="evenodd" clip-rule="evenodd" d="M0.366394 27.4337C1.39651 10.4657 10.9783 1.61179 27.4631 0L27.3194 5.6701C13.9717 6.75937 6.79615 14.1352 5.85304 27.4362L0.366394 27.4337Z" fill="#3B3D45"/>
<path fill-rule="evenodd" clip-rule="evenodd" d="M8.79724 16.2322L13.3408 18.9756C18.6688 11.0205 25.8985 8.42585 35.6513 12.9445L38.2658 8.36669C28.0477 2.81293 14.0661 6.12301 8.79724 16.2322Z" fill="#3B3D45"/>
<path fill-rule="evenodd" clip-rule="evenodd" d="M41.9423 18.8026C38.5825 11.9194 27.386 7.41065 19.7034 12.6447L22.5581 17.4776C27.8419 15.0067 32.7737 15.4969 37.1835 21.5036L41.9423 18.8026Z" fill="#3B3D45"/>
<path fill-rule="evenodd" clip-rule="evenodd" d="M29.0157 16.101C34.2523 16.1159 39.6624 20.8349 39.4446 27.3592L35.1218 27.3492C34.7753 22.6078 32.1035 20.912 28.7984 20.825L29.0157 16.101Z" fill="#3B3D45"/>
<path d="M41.643 28.1268H0V29.58H41.643V28.1268Z" fill="#3B3D45"/>
<path d="M0.561798 33.4255L1.14397 33.3758C1.17132 33.6085 1.23545 33.7994 1.33438 33.9475C1.4358 34.0987 1.59191 34.2175 1.8047 34.3114C2.01499 34.4029 2.25264 34.4477 2.51762 34.4477C2.75278 34.4477 2.96059 34.4129 3.13907 34.3437C3.32004 34.2746 3.45328 34.1777 3.54276 34.0564C3.62927 33.9351 3.67401 33.8013 3.67401 33.6577C3.67401 33.5115 3.63176 33.3852 3.54525 33.2739C3.46123 33.165 3.32252 33.076 3.12664 33.0014C3.00285 32.9517 2.72543 32.8751 2.29987 32.7737C1.87132 32.6698 1.57203 32.5734 1.401 32.4839C1.17828 32.3675 1.01222 32.2214 0.903346 32.0479C0.794469 31.8768 0.739781 31.6839 0.739781 31.4687C0.739781 31.236 0.8064 31.0158 0.940633 30.8124C1.07437 30.6071 1.26727 30.451 1.5248 30.3446C1.77984 30.2407 2.06471 30.1885 2.37891 30.1885C2.72295 30.1885 3.02771 30.2432 3.29021 30.3545C3.55519 30.4659 3.75803 30.6295 3.89923 30.8447C4.04042 31.06 4.11698 31.3051 4.12693 31.5776L3.53779 31.6223C3.50548 31.3275 3.3966 31.1048 3.21364 30.9561C3.03019 30.805 2.76073 30.7309 2.40427 30.7309C2.03041 30.7309 1.76045 30.7975 1.58943 30.9362C1.4184 31.0724 1.33438 31.236 1.33438 31.4289C1.33438 31.5974 1.39355 31.7337 1.51485 31.8401C1.63367 31.9489 1.9434 32.0603 2.44355 32.1717C2.94369 32.2855 3.28772 32.3844 3.47366 32.469C3.74362 32.5952 3.94397 32.7538 4.07522 32.9442C4.20399 33.1347 4.26563 33.3579 4.26563 33.6055C4.26563 33.8555 4.19653 34.0882 4.05534 34.306C3.91166 34.5262 3.70882 34.6947 3.44383 34.8185C3.17686 34.9408 2.87955 35 2.54795 35C2.12686 35 1.77288 34.9403 1.4885 34.8165C1.20363 34.6928 0.980903 34.5098 0.817338 34.2617C0.656258 34.0171 0.569255 33.7372 0.561798 33.4255ZM7.43055 34.9209V30.2661H8.04703V32.5763L10.3573 30.2661H11.1916L9.23822 32.1528L11.2786 34.9209H10.4667L8.80768 32.5664L8.04752 33.3092V34.9209H7.43055ZM15.4497 34.9209V32.9502L13.6545 30.2661H14.4047L15.3234 31.67C15.492 31.9325 15.6476 32.195 15.7938 32.4575C15.935 32.2149 16.1035 31.94 16.3038 31.6357L17.2052 30.2665H17.9231L16.0637 32.9507V34.9214H15.4497V34.9209ZM20.7957 34.9209V30.2661H21.4122V34.3711H23.7051V34.9209H20.7957ZM26.8889 30.2661H27.5053V34.9209H26.8889V30.2661ZM30.9298 34.9209V30.2661H31.5612L34.0072 33.9207V30.2661H34.5963V34.9209H33.9649L31.5214 31.2638V34.9209H30.9298ZM37.9909 34.9209V30.2661H41.3557V30.8159H38.6074V32.2423H41.1822V32.7896H38.6074V34.3716H41.4646V34.9214H37.9909V34.9209Z" fill="#3B3D45"/>
</g>
<defs>
<clipPath id="clip0_319_1282">
<rect width="41.9423" height="35" fill="white"/>
</clipPath>
</defs>
</svg>
