<svg width="28" height="28" viewBox="0 0 28 28" fill="none" xmlns="http://www.w3.org/2000/svg">
<rect width="28" height="28" rx="2" fill="#017BB6"/>
<g clip-path="url(#clip0_2718_2163)">
<path d="M8.63601 11.6841H10.952V19.3821H8.63601V11.6841ZM9.80001 8.6001C9.48175 8.6001 9.17652 8.72653 8.95148 8.95157C8.72643 9.17661 8.60001 9.48184 8.60001 9.8001C8.6169 10.1068 8.75075 10.3953 8.97399 10.6063C9.19722 10.8172 9.49286 10.9346 9.80001 10.9341C10.1072 10.9346 10.4028 10.8172 10.626 10.6063C10.8493 10.3953 10.9831 10.1068 11 9.8001C11 9.48184 10.8736 9.17661 10.6485 8.95157C10.4235 8.72653 10.1183 8.6001 9.80001 8.6001ZM18.65 12.7041C18.4153 12.4334 18.1205 12.2214 17.7892 12.0849C17.4579 11.9484 17.0993 11.8913 16.742 11.9181C16.2802 11.9074 15.8242 12.0223 15.4226 12.2505C15.0211 12.4788 14.689 12.8118 14.462 13.2141H14.426V11.6841H12.482C12.518 12.4701 12.482 19.3821 12.482 19.3821H14.798V14.6001C14.8511 14.3371 14.9977 14.1023 15.2106 13.9391C15.4235 13.7758 15.6883 13.6952 15.956 13.7121C16.706 13.7121 17.078 14.2581 17.078 15.3141V19.4001H19.4V15.0201C19.4465 14.1817 19.1792 13.3561 18.65 12.7041Z" fill="white"/>
</g>
<defs>
<clipPath id="clip0_2718_2163">
<rect width="12" height="12" fill="white" transform="translate(8 8)"/>
</clipPath>
</defs>
</svg>
