<svg width="28" height="28" viewBox="0 0 28 28" fill="none" xmlns="http://www.w3.org/2000/svg">
<rect width="28" height="28" rx="2" fill="#0F94F0"/>
<path d="M20 10.2799C19.5501 10.4799 19.0728 10.6114 18.584 10.6699C19.0974 10.362 19.4812 9.87792 19.664 9.30788C19.1799 9.59549 18.6503 9.7984 18.098 9.90788C17.7596 9.54979 17.3215 9.30155 16.8404 9.19532C16.3593 9.08909 15.8574 9.12976 15.3997 9.31207C14.942 9.49437 14.5496 9.80992 14.2733 10.2178C13.997 10.6257 13.8495 11.1072 13.85 11.5999C13.8508 11.7878 13.873 11.975 13.916 12.1579C12.9362 12.1081 11.9779 11.8527 11.1034 11.4082C10.2288 10.9637 9.45767 10.34 8.84 9.57788C8.62029 9.95276 8.50432 10.3794 8.504 10.8139C8.4931 11.215 8.58296 11.6125 8.76534 11.9699C8.94772 12.3273 9.21681 12.6333 9.548 12.8599C9.14 12.8479 8.378 12.7399 8.378 12.5539V12.5839C8.39316 13.1548 8.60226 13.7035 8.97087 14.1397C9.33948 14.576 9.84563 14.8737 10.406 14.9839C10.2107 15.0387 10.0089 15.0669 9.806 15.0679C9.655 15.0684 9.50429 15.0544 9.356 15.0259C9.51444 15.5152 9.82154 15.9429 10.2345 16.2494C10.6475 16.5559 11.1458 16.7259 11.66 16.7359C10.7894 17.4264 9.71119 17.8028 8.6 17.8039C8.39947 17.8036 8.19913 17.7916 8 17.7679C9.12602 18.4904 10.4361 18.8736 11.774 18.8719C12.6973 18.8815 13.6133 18.7071 14.4685 18.3589C15.3237 18.0107 16.1009 17.4957 16.755 16.8439C17.409 16.1921 17.9267 15.4166 18.2778 14.5626C18.6289 13.7086 18.8064 12.7932 18.8 11.8699V11.5519C19.2716 11.2016 19.6778 10.771 20 10.2799Z" fill="white"/>
</svg>
